<mxfile host="app.diagrams.net" modified="2023-10-01T08:40:07.693Z" agent="Mozilla/5.0 (Windows NT 10.0; Win64; x64) AppleWebKit/537.36 (KHTML, like Gecko) Chrome/117.0.0.0 Safari/537.36 Edg/117.0.2045.43" etag="hnlLgN8k3CUIL6qRbD7M" version="22.0.0" type="device">
  <diagram name="Página-1" id="ggkyg9CchhcVD_Qr3DYb">
    <mxGraphModel dx="945" dy="775" grid="1" gridSize="10" guides="1" tooltips="1" connect="1" arrows="1" fold="1" page="1" pageScale="1" pageWidth="827" pageHeight="1169" math="0" shadow="0">
      <root>
        <mxCell id="0" />
        <mxCell id="1" parent="0" />
        <mxCell id="rnyX5kuLXFy3fxwl4x2--3" value="" style="edgeStyle=orthogonalEdgeStyle;rounded=0;orthogonalLoop=1;jettySize=auto;html=1;" parent="1" source="rnyX5kuLXFy3fxwl4x2--1" target="rnyX5kuLXFy3fxwl4x2--2" edge="1">
          <mxGeometry relative="1" as="geometry" />
        </mxCell>
        <mxCell id="rnyX5kuLXFy3fxwl4x2--1" value="&lt;font style=&quot;font-size: 23px;&quot;&gt;0&lt;/font&gt;" style="rounded=0;whiteSpace=wrap;html=1;" parent="1" vertex="1">
          <mxGeometry x="330" y="100" width="70" height="50" as="geometry" />
        </mxCell>
        <mxCell id="rnyX5kuLXFy3fxwl4x2--13" value="" style="edgeStyle=orthogonalEdgeStyle;rounded=0;orthogonalLoop=1;jettySize=auto;html=1;" parent="1" source="rnyX5kuLXFy3fxwl4x2--2" target="rnyX5kuLXFy3fxwl4x2--12" edge="1">
          <mxGeometry relative="1" as="geometry" />
        </mxCell>
        <mxCell id="rnyX5kuLXFy3fxwl4x2--17" value="" style="edgeStyle=orthogonalEdgeStyle;rounded=0;orthogonalLoop=1;jettySize=auto;html=1;" parent="1" source="rnyX5kuLXFy3fxwl4x2--2" target="rnyX5kuLXFy3fxwl4x2--16" edge="1">
          <mxGeometry relative="1" as="geometry" />
        </mxCell>
        <mxCell id="rnyX5kuLXFy3fxwl4x2--20" style="edgeStyle=orthogonalEdgeStyle;rounded=0;orthogonalLoop=1;jettySize=auto;html=1;entryX=0.5;entryY=0;entryDx=0;entryDy=0;" parent="1" target="rnyX5kuLXFy3fxwl4x2--18" edge="1">
          <mxGeometry relative="1" as="geometry">
            <mxPoint x="365" y="300" as="sourcePoint" />
            <Array as="points">
              <mxPoint x="365" y="310" />
              <mxPoint x="485" y="310" />
            </Array>
          </mxGeometry>
        </mxCell>
        <mxCell id="rnyX5kuLXFy3fxwl4x2--2" value="&lt;font style=&quot;font-size: 23px;&quot;&gt;1&lt;/font&gt;" style="rounded=0;whiteSpace=wrap;html=1;" parent="1" vertex="1">
          <mxGeometry x="330" y="240" width="70" height="50" as="geometry" />
        </mxCell>
        <mxCell id="rnyX5kuLXFy3fxwl4x2--6" value="&lt;font style=&quot;font-size: 19px;&quot;&gt;↑S1&lt;/font&gt;" style="text;html=1;align=center;verticalAlign=middle;resizable=0;points=[];autosize=1;strokeColor=none;fillColor=none;" parent="1" vertex="1">
          <mxGeometry x="360" y="173" width="60" height="40" as="geometry" />
        </mxCell>
        <mxCell id="rnyX5kuLXFy3fxwl4x2--11" value="&lt;font style=&quot;font-size: 23px;&quot;&gt;S&lt;/font&gt;" style="rounded=0;whiteSpace=wrap;html=1;" parent="1" vertex="1">
          <mxGeometry x="460" y="240" width="30" height="50" as="geometry" />
        </mxCell>
        <mxCell id="rnyX5kuLXFy3fxwl4x2--12" value="Motor1(Q0.0)" style="rounded=0;whiteSpace=wrap;html=1;" parent="1" vertex="1">
          <mxGeometry x="490" y="240" width="120" height="50" as="geometry" />
        </mxCell>
        <mxCell id="rnyX5kuLXFy3fxwl4x2--44" value="" style="edgeStyle=orthogonalEdgeStyle;rounded=0;orthogonalLoop=1;jettySize=auto;html=1;" parent="1" source="rnyX5kuLXFy3fxwl4x2--16" target="rnyX5kuLXFy3fxwl4x2--43" edge="1">
          <mxGeometry relative="1" as="geometry" />
        </mxCell>
        <mxCell id="rnyX5kuLXFy3fxwl4x2--16" value="&lt;font style=&quot;font-size: 23px;&quot;&gt;3&lt;/font&gt;" style="rounded=0;whiteSpace=wrap;html=1;" parent="1" vertex="1">
          <mxGeometry x="330" y="500" width="70" height="50" as="geometry" />
        </mxCell>
        <mxCell id="rnyX5kuLXFy3fxwl4x2--46" style="edgeStyle=orthogonalEdgeStyle;rounded=0;orthogonalLoop=1;jettySize=auto;html=1;exitX=0.5;exitY=1;exitDx=0;exitDy=0;endArrow=none;endFill=0;entryX=0.18;entryY=0.016;entryDx=0;entryDy=0;entryPerimeter=0;" parent="1" source="rnyX5kuLXFy3fxwl4x2--18" target="rnyX5kuLXFy3fxwl4x2--45" edge="1">
          <mxGeometry relative="1" as="geometry">
            <mxPoint x="360" y="560" as="targetPoint" />
            <Array as="points">
              <mxPoint x="485" y="590" />
              <mxPoint x="365" y="590" />
              <mxPoint x="365" y="609" />
              <mxPoint x="365" y="609" />
            </Array>
          </mxGeometry>
        </mxCell>
        <mxCell id="rnyX5kuLXFy3fxwl4x2--18" value="&lt;font style=&quot;font-size: 23px;&quot;&gt;2&lt;/font&gt;" style="rounded=0;whiteSpace=wrap;html=1;" parent="1" vertex="1">
          <mxGeometry x="450" y="370" width="70" height="50" as="geometry" />
        </mxCell>
        <mxCell id="rnyX5kuLXFy3fxwl4x2--26" value="" style="edgeStyle=orthogonalEdgeStyle;rounded=0;orthogonalLoop=1;jettySize=auto;html=1;" parent="1" target="rnyX5kuLXFy3fxwl4x2--28" edge="1">
          <mxGeometry relative="1" as="geometry">
            <mxPoint x="520" y="395" as="sourcePoint" />
          </mxGeometry>
        </mxCell>
        <mxCell id="rnyX5kuLXFy3fxwl4x2--27" value="&lt;font style=&quot;font-size: 23px;&quot;&gt;S&lt;/font&gt;" style="rounded=0;whiteSpace=wrap;html=1;" parent="1" vertex="1">
          <mxGeometry x="580" y="370" width="30" height="50" as="geometry" />
        </mxCell>
        <mxCell id="rnyX5kuLXFy3fxwl4x2--28" value="Caixa Grande" style="rounded=0;whiteSpace=wrap;html=1;" parent="1" vertex="1">
          <mxGeometry x="610" y="370" width="120" height="50" as="geometry" />
        </mxCell>
        <mxCell id="rnyX5kuLXFy3fxwl4x2--29" value="" style="edgeStyle=orthogonalEdgeStyle;rounded=0;orthogonalLoop=1;jettySize=auto;html=1;dashed=1;" parent="1" target="rnyX5kuLXFy3fxwl4x2--31" edge="1">
          <mxGeometry relative="1" as="geometry">
            <mxPoint x="400" y="525" as="sourcePoint" />
          </mxGeometry>
        </mxCell>
        <mxCell id="rnyX5kuLXFy3fxwl4x2--30" value="&lt;font style=&quot;font-size: 23px;&quot;&gt;S&lt;/font&gt;" style="rounded=0;whiteSpace=wrap;html=1;" parent="1" vertex="1">
          <mxGeometry x="580" y="500" width="30" height="50" as="geometry" />
        </mxCell>
        <mxCell id="rnyX5kuLXFy3fxwl4x2--31" value="Caixa Média" style="rounded=0;whiteSpace=wrap;html=1;" parent="1" vertex="1">
          <mxGeometry x="610" y="500" width="120" height="50" as="geometry" />
        </mxCell>
        <mxCell id="rnyX5kuLXFy3fxwl4x2--35" value="&lt;font style=&quot;font-size: 19px;&quot;&gt;↑S2&lt;/font&gt;" style="text;html=1;align=center;verticalAlign=middle;resizable=0;points=[];autosize=1;strokeColor=none;fillColor=none;" parent="1" vertex="1">
          <mxGeometry x="480" y="320" width="60" height="40" as="geometry" />
        </mxCell>
        <mxCell id="rnyX5kuLXFy3fxwl4x2--36" value="&lt;font style=&quot;font-size: 19px;&quot;&gt;↑S3&lt;br&gt;&lt;/font&gt;" style="text;html=1;align=center;verticalAlign=middle;resizable=0;points=[];autosize=1;strokeColor=none;fillColor=none;" parent="1" vertex="1">
          <mxGeometry x="360" y="320" width="60" height="40" as="geometry" />
        </mxCell>
        <mxCell id="rnyX5kuLXFy3fxwl4x2--49" value="" style="edgeStyle=orthogonalEdgeStyle;rounded=0;orthogonalLoop=1;jettySize=auto;html=1;" parent="1" source="rnyX5kuLXFy3fxwl4x2--43" target="rnyX5kuLXFy3fxwl4x2--48" edge="1">
          <mxGeometry relative="1" as="geometry" />
        </mxCell>
        <mxCell id="rnyX5kuLXFy3fxwl4x2--43" value="&lt;font style=&quot;font-size: 23px;&quot;&gt;4&lt;/font&gt;" style="rounded=0;whiteSpace=wrap;html=1;" parent="1" vertex="1">
          <mxGeometry x="330" y="700" width="70" height="50" as="geometry" />
        </mxCell>
        <mxCell id="rnyX5kuLXFy3fxwl4x2--45" value="&lt;font style=&quot;font-size: 19px;&quot;&gt;↑S4&lt;/font&gt;" style="text;html=1;align=center;verticalAlign=middle;resizable=0;points=[];autosize=1;strokeColor=none;fillColor=none;" parent="1" vertex="1">
          <mxGeometry x="354" y="610" width="60" height="40" as="geometry" />
        </mxCell>
        <mxCell id="rnyX5kuLXFy3fxwl4x2--57" style="edgeStyle=orthogonalEdgeStyle;rounded=0;orthogonalLoop=1;jettySize=auto;html=1;exitX=0.5;exitY=1;exitDx=0;exitDy=0;entryX=0;entryY=0.5;entryDx=0;entryDy=0;" parent="1" source="rnyX5kuLXFy3fxwl4x2--48" target="rnyX5kuLXFy3fxwl4x2--1" edge="1">
          <mxGeometry relative="1" as="geometry">
            <mxPoint x="240" y="120" as="targetPoint" />
            <Array as="points">
              <mxPoint x="365" y="960" />
              <mxPoint x="270" y="960" />
              <mxPoint x="270" y="125" />
            </Array>
          </mxGeometry>
        </mxCell>
        <mxCell id="rnyX5kuLXFy3fxwl4x2--48" value="&lt;font style=&quot;font-size: 23px;&quot;&gt;5&lt;/font&gt;" style="rounded=0;whiteSpace=wrap;html=1;" parent="1" vertex="1">
          <mxGeometry x="330" y="830" width="70" height="50" as="geometry" />
        </mxCell>
        <mxCell id="rnyX5kuLXFy3fxwl4x2--50" value="" style="edgeStyle=orthogonalEdgeStyle;rounded=0;orthogonalLoop=1;jettySize=auto;html=1;" parent="1" target="rnyX5kuLXFy3fxwl4x2--52" edge="1">
          <mxGeometry relative="1" as="geometry">
            <mxPoint x="405" y="725" as="sourcePoint" />
          </mxGeometry>
        </mxCell>
        <mxCell id="rnyX5kuLXFy3fxwl4x2--51" value="&lt;span style=&quot;font-size: 23px;&quot;&gt;R&lt;/span&gt;" style="rounded=0;whiteSpace=wrap;html=1;" parent="1" vertex="1">
          <mxGeometry x="465" y="700" width="30" height="50" as="geometry" />
        </mxCell>
        <mxCell id="rnyX5kuLXFy3fxwl4x2--52" value="Motor1(Q0.0)" style="rounded=0;whiteSpace=wrap;html=1;" parent="1" vertex="1">
          <mxGeometry x="495" y="700" width="120" height="50" as="geometry" />
        </mxCell>
        <mxCell id="rnyX5kuLXFy3fxwl4x2--53" value="" style="edgeStyle=orthogonalEdgeStyle;rounded=0;orthogonalLoop=1;jettySize=auto;html=1;" parent="1" target="rnyX5kuLXFy3fxwl4x2--55" edge="1">
          <mxGeometry relative="1" as="geometry">
            <mxPoint x="405" y="855" as="sourcePoint" />
          </mxGeometry>
        </mxCell>
        <mxCell id="rnyX5kuLXFy3fxwl4x2--54" value="&lt;font style=&quot;font-size: 23px;&quot;&gt;S&lt;/font&gt;" style="rounded=0;whiteSpace=wrap;html=1;" parent="1" vertex="1">
          <mxGeometry x="465" y="830" width="30" height="50" as="geometry" />
        </mxCell>
        <mxCell id="rnyX5kuLXFy3fxwl4x2--55" value="Motor1(Q0.0)" style="rounded=0;whiteSpace=wrap;html=1;" parent="1" vertex="1">
          <mxGeometry x="495" y="830" width="120" height="50" as="geometry" />
        </mxCell>
        <mxCell id="rnyX5kuLXFy3fxwl4x2--56" value="&lt;font style=&quot;font-size: 19px;&quot;&gt;NOT S8&lt;/font&gt;" style="text;html=1;align=center;verticalAlign=middle;resizable=0;points=[];autosize=1;strokeColor=none;fillColor=none;" parent="1" vertex="1">
          <mxGeometry x="354" y="770" width="90" height="40" as="geometry" />
        </mxCell>
        <mxCell id="rnyX5kuLXFy3fxwl4x2--58" value="&lt;font style=&quot;font-size: 19px;&quot;&gt;↓S4&lt;/font&gt;" style="text;html=1;align=center;verticalAlign=middle;resizable=0;points=[];autosize=1;strokeColor=none;fillColor=none;" parent="1" vertex="1">
          <mxGeometry x="360" y="900" width="60" height="40" as="geometry" />
        </mxCell>
      </root>
    </mxGraphModel>
  </diagram>
</mxfile>
